<mxfile host="www.draw.io" modified="2019-11-09T10:19:20.042Z" agent="Mozilla/5.0 (Macintosh; Intel Mac OS X 10_13_6) AppleWebKit/537.36 (KHTML, like Gecko) Chrome/77.0.3865.90 Safari/537.36" etag="rF1HHIvmEVpEEG8SmSGb" version="12.2.3" type="github" pages="1">
  <diagram id="VY9bVv_uSy-Bu69VJ9aL" name="Page-1">
    <mxGraphModel dx="786" dy="513" grid="1" gridSize="10" guides="1" tooltips="1" connect="1" arrows="1" fold="1" page="1" pageScale="1" pageWidth="1169" pageHeight="827" math="0" shadow="0">
      <root>
        <mxCell id="0"/>
        <mxCell id="1" parent="0"/>
        <mxCell id="-QWWCps_DgQTeQD6dPXx-1" value="club" style="swimlane;fontStyle=0;childLayout=stackLayout;horizontal=1;startSize=26;fillColor=#e0e0e0;horizontalStack=0;resizeParent=1;resizeParentMax=0;resizeLast=0;collapsible=1;marginBottom=0;swimlaneFillColor=#ffffff;align=center;fontSize=14;" vertex="1" parent="1">
          <mxGeometry x="155" y="100" width="160" height="78" as="geometry"/>
        </mxCell>
        <mxCell id="-QWWCps_DgQTeQD6dPXx-2" value="ID" style="text;strokeColor=none;fillColor=none;spacingLeft=4;spacingRight=4;overflow=hidden;rotatable=0;points=[[0,0.5],[1,0.5]];portConstraint=eastwest;fontSize=12;fontStyle=4" vertex="1" parent="-QWWCps_DgQTeQD6dPXx-1">
          <mxGeometry y="26" width="160" height="26" as="geometry"/>
        </mxCell>
        <mxCell id="-QWWCps_DgQTeQD6dPXx-3" value="name" style="text;strokeColor=none;fillColor=none;spacingLeft=4;spacingRight=4;overflow=hidden;rotatable=0;points=[[0,0.5],[1,0.5]];portConstraint=eastwest;fontSize=12;" vertex="1" parent="-QWWCps_DgQTeQD6dPXx-1">
          <mxGeometry y="52" width="160" height="26" as="geometry"/>
        </mxCell>
        <mxCell id="-QWWCps_DgQTeQD6dPXx-5" value="activity" style="swimlane;fontStyle=0;childLayout=stackLayout;horizontal=1;startSize=26;fillColor=#e0e0e0;horizontalStack=0;resizeParent=1;resizeParentMax=0;resizeLast=0;collapsible=1;marginBottom=0;swimlaneFillColor=#ffffff;align=center;fontSize=14;" vertex="1" parent="1">
          <mxGeometry x="460" y="60" width="160" height="208" as="geometry"/>
        </mxCell>
        <mxCell id="-QWWCps_DgQTeQD6dPXx-6" value="date" style="text;strokeColor=none;fillColor=none;spacingLeft=4;spacingRight=4;overflow=hidden;rotatable=0;points=[[0,0.5],[1,0.5]];portConstraint=eastwest;fontSize=12;fontStyle=4" vertex="1" parent="-QWWCps_DgQTeQD6dPXx-5">
          <mxGeometry y="26" width="160" height="26" as="geometry"/>
        </mxCell>
        <mxCell id="-QWWCps_DgQTeQD6dPXx-7" value="time" style="text;strokeColor=none;fillColor=none;spacingLeft=4;spacingRight=4;overflow=hidden;rotatable=0;points=[[0,0.5],[1,0.5]];portConstraint=eastwest;fontSize=12;fontStyle=4" vertex="1" parent="-QWWCps_DgQTeQD6dPXx-5">
          <mxGeometry y="52" width="160" height="26" as="geometry"/>
        </mxCell>
        <mxCell id="-QWWCps_DgQTeQD6dPXx-8" value="building" style="text;strokeColor=none;fillColor=none;spacingLeft=4;spacingRight=4;overflow=hidden;rotatable=0;points=[[0,0.5],[1,0.5]];portConstraint=eastwest;fontSize=12;fontStyle=4" vertex="1" parent="-QWWCps_DgQTeQD6dPXx-5">
          <mxGeometry y="78" width="160" height="26" as="geometry"/>
        </mxCell>
        <mxCell id="-QWWCps_DgQTeQD6dPXx-9" value="room" style="text;strokeColor=none;fillColor=none;spacingLeft=4;spacingRight=4;overflow=hidden;rotatable=0;points=[[0,0.5],[1,0.5]];portConstraint=eastwest;fontSize=12;fontStyle=4" vertex="1" parent="-QWWCps_DgQTeQD6dPXx-5">
          <mxGeometry y="104" width="160" height="26" as="geometry"/>
        </mxCell>
        <mxCell id="-QWWCps_DgQTeQD6dPXx-10" value="capacity" style="text;strokeColor=none;fillColor=none;spacingLeft=4;spacingRight=4;overflow=hidden;rotatable=0;points=[[0,0.5],[1,0.5]];portConstraint=eastwest;fontSize=12;fontStyle=0" vertex="1" parent="-QWWCps_DgQTeQD6dPXx-5">
          <mxGeometry y="130" width="160" height="26" as="geometry"/>
        </mxCell>
        <mxCell id="-QWWCps_DgQTeQD6dPXx-11" value="description" style="text;strokeColor=none;fillColor=none;spacingLeft=4;spacingRight=4;overflow=hidden;rotatable=0;points=[[0,0.5],[1,0.5]];portConstraint=eastwest;fontSize=12;fontStyle=0" vertex="1" parent="-QWWCps_DgQTeQD6dPXx-5">
          <mxGeometry y="156" width="160" height="26" as="geometry"/>
        </mxCell>
        <mxCell id="-QWWCps_DgQTeQD6dPXx-12" value="ID" style="text;strokeColor=none;fillColor=none;spacingLeft=4;spacingRight=4;overflow=hidden;rotatable=0;points=[[0,0.5],[1,0.5]];portConstraint=eastwest;fontSize=12;fontStyle=0" vertex="1" parent="-QWWCps_DgQTeQD6dPXx-5">
          <mxGeometry y="182" width="160" height="26" as="geometry"/>
        </mxCell>
        <mxCell id="-QWWCps_DgQTeQD6dPXx-14" value="" style="endArrow=none;dashed=1;html=1;" edge="1" parent="-QWWCps_DgQTeQD6dPXx-5">
          <mxGeometry width="50" height="50" relative="1" as="geometry">
            <mxPoint x="6" y="202" as="sourcePoint"/>
            <mxPoint x="22" y="202" as="targetPoint"/>
          </mxGeometry>
        </mxCell>
        <mxCell id="-QWWCps_DgQTeQD6dPXx-13" style="edgeStyle=orthogonalEdgeStyle;rounded=0;orthogonalLoop=1;jettySize=auto;html=1;exitX=0;exitY=0.5;exitDx=0;exitDy=0;entryX=1;entryY=0.5;entryDx=0;entryDy=0;" edge="1" parent="1" source="-QWWCps_DgQTeQD6dPXx-12" target="-QWWCps_DgQTeQD6dPXx-2">
          <mxGeometry relative="1" as="geometry"/>
        </mxCell>
        <mxCell id="-QWWCps_DgQTeQD6dPXx-15" value="club" style="swimlane;fontStyle=0;childLayout=stackLayout;horizontal=1;startSize=26;fillColor=#e0e0e0;horizontalStack=0;resizeParent=1;resizeParentMax=0;resizeLast=0;collapsible=1;marginBottom=0;swimlaneFillColor=#ffffff;align=center;fontSize=14;" vertex="1" parent="1">
          <mxGeometry x="150" y="390" width="160" height="78" as="geometry"/>
        </mxCell>
        <mxCell id="-QWWCps_DgQTeQD6dPXx-16" value="ID" style="text;strokeColor=none;fillColor=none;spacingLeft=4;spacingRight=4;overflow=hidden;rotatable=0;points=[[0,0.5],[1,0.5]];portConstraint=eastwest;fontSize=12;fontStyle=4" vertex="1" parent="-QWWCps_DgQTeQD6dPXx-15">
          <mxGeometry y="26" width="160" height="26" as="geometry"/>
        </mxCell>
        <mxCell id="-QWWCps_DgQTeQD6dPXx-17" value="name" style="text;strokeColor=none;fillColor=none;spacingLeft=4;spacingRight=4;overflow=hidden;rotatable=0;points=[[0,0.5],[1,0.5]];portConstraint=eastwest;fontSize=12;" vertex="1" parent="-QWWCps_DgQTeQD6dPXx-15">
          <mxGeometry y="52" width="160" height="26" as="geometry"/>
        </mxCell>
        <mxCell id="-QWWCps_DgQTeQD6dPXx-18" value="activity" style="swimlane;fontStyle=0;childLayout=stackLayout;horizontal=1;startSize=26;fillColor=#e0e0e0;horizontalStack=0;resizeParent=1;resizeParentMax=0;resizeLast=0;collapsible=1;marginBottom=0;swimlaneFillColor=#ffffff;align=center;fontSize=14;" vertex="1" parent="1">
          <mxGeometry x="424" y="360" width="160" height="182" as="geometry"/>
        </mxCell>
        <mxCell id="-QWWCps_DgQTeQD6dPXx-19" value="date" style="text;strokeColor=none;fillColor=none;spacingLeft=4;spacingRight=4;overflow=hidden;rotatable=0;points=[[0,0.5],[1,0.5]];portConstraint=eastwest;fontSize=12;fontStyle=4" vertex="1" parent="-QWWCps_DgQTeQD6dPXx-18">
          <mxGeometry y="26" width="160" height="26" as="geometry"/>
        </mxCell>
        <mxCell id="-QWWCps_DgQTeQD6dPXx-20" value="time" style="text;strokeColor=none;fillColor=none;spacingLeft=4;spacingRight=4;overflow=hidden;rotatable=0;points=[[0,0.5],[1,0.5]];portConstraint=eastwest;fontSize=12;fontStyle=4" vertex="1" parent="-QWWCps_DgQTeQD6dPXx-18">
          <mxGeometry y="52" width="160" height="26" as="geometry"/>
        </mxCell>
        <mxCell id="-QWWCps_DgQTeQD6dPXx-21" value="building" style="text;strokeColor=none;fillColor=none;spacingLeft=4;spacingRight=4;overflow=hidden;rotatable=0;points=[[0,0.5],[1,0.5]];portConstraint=eastwest;fontSize=12;fontStyle=4" vertex="1" parent="-QWWCps_DgQTeQD6dPXx-18">
          <mxGeometry y="78" width="160" height="26" as="geometry"/>
        </mxCell>
        <mxCell id="-QWWCps_DgQTeQD6dPXx-22" value="room" style="text;strokeColor=none;fillColor=none;spacingLeft=4;spacingRight=4;overflow=hidden;rotatable=0;points=[[0,0.5],[1,0.5]];portConstraint=eastwest;fontSize=12;fontStyle=4" vertex="1" parent="-QWWCps_DgQTeQD6dPXx-18">
          <mxGeometry y="104" width="160" height="26" as="geometry"/>
        </mxCell>
        <mxCell id="-QWWCps_DgQTeQD6dPXx-24" value="description" style="text;strokeColor=none;fillColor=none;spacingLeft=4;spacingRight=4;overflow=hidden;rotatable=0;points=[[0,0.5],[1,0.5]];portConstraint=eastwest;fontSize=12;fontStyle=0" vertex="1" parent="-QWWCps_DgQTeQD6dPXx-18">
          <mxGeometry y="130" width="160" height="26" as="geometry"/>
        </mxCell>
        <mxCell id="-QWWCps_DgQTeQD6dPXx-25" value="ID" style="text;strokeColor=none;fillColor=none;spacingLeft=4;spacingRight=4;overflow=hidden;rotatable=0;points=[[0,0.5],[1,0.5]];portConstraint=eastwest;fontSize=12;fontStyle=0" vertex="1" parent="-QWWCps_DgQTeQD6dPXx-18">
          <mxGeometry y="156" width="160" height="26" as="geometry"/>
        </mxCell>
        <mxCell id="-QWWCps_DgQTeQD6dPXx-26" value="" style="endArrow=none;dashed=1;html=1;" edge="1" parent="-QWWCps_DgQTeQD6dPXx-18">
          <mxGeometry width="50" height="50" relative="1" as="geometry">
            <mxPoint x="6" y="176" as="sourcePoint"/>
            <mxPoint x="22" y="176" as="targetPoint"/>
          </mxGeometry>
        </mxCell>
        <mxCell id="-QWWCps_DgQTeQD6dPXx-27" value="roomInfo" style="swimlane;fontStyle=0;childLayout=stackLayout;horizontal=1;startSize=26;fillColor=#e0e0e0;horizontalStack=0;resizeParent=1;resizeParentMax=0;resizeLast=0;collapsible=1;marginBottom=0;swimlaneFillColor=#ffffff;align=center;fontSize=14;" vertex="1" parent="1">
          <mxGeometry x="690" y="412" width="160" height="104" as="geometry"/>
        </mxCell>
        <mxCell id="-QWWCps_DgQTeQD6dPXx-28" value="building" style="text;strokeColor=none;fillColor=none;spacingLeft=4;spacingRight=4;overflow=hidden;rotatable=0;points=[[0,0.5],[1,0.5]];portConstraint=eastwest;fontSize=12;fontStyle=4" vertex="1" parent="-QWWCps_DgQTeQD6dPXx-27">
          <mxGeometry y="26" width="160" height="26" as="geometry"/>
        </mxCell>
        <mxCell id="-QWWCps_DgQTeQD6dPXx-29" value="room" style="text;strokeColor=none;fillColor=none;spacingLeft=4;spacingRight=4;overflow=hidden;rotatable=0;points=[[0,0.5],[1,0.5]];portConstraint=eastwest;fontSize=12;fontStyle=4" vertex="1" parent="-QWWCps_DgQTeQD6dPXx-27">
          <mxGeometry y="52" width="160" height="26" as="geometry"/>
        </mxCell>
        <mxCell id="-QWWCps_DgQTeQD6dPXx-30" value="capacity" style="text;strokeColor=none;fillColor=none;spacingLeft=4;spacingRight=4;overflow=hidden;rotatable=0;points=[[0,0.5],[1,0.5]];portConstraint=eastwest;fontSize=12;" vertex="1" parent="-QWWCps_DgQTeQD6dPXx-27">
          <mxGeometry y="78" width="160" height="26" as="geometry"/>
        </mxCell>
        <mxCell id="-QWWCps_DgQTeQD6dPXx-31" style="edgeStyle=orthogonalEdgeStyle;rounded=0;orthogonalLoop=1;jettySize=auto;html=1;exitX=1;exitY=0.5;exitDx=0;exitDy=0;" edge="1" parent="1" source="-QWWCps_DgQTeQD6dPXx-21" target="-QWWCps_DgQTeQD6dPXx-28">
          <mxGeometry relative="1" as="geometry"/>
        </mxCell>
        <mxCell id="-QWWCps_DgQTeQD6dPXx-32" style="edgeStyle=orthogonalEdgeStyle;rounded=0;orthogonalLoop=1;jettySize=auto;html=1;exitX=1;exitY=0.5;exitDx=0;exitDy=0;" edge="1" parent="1" source="-QWWCps_DgQTeQD6dPXx-22" target="-QWWCps_DgQTeQD6dPXx-29">
          <mxGeometry relative="1" as="geometry"/>
        </mxCell>
        <mxCell id="-QWWCps_DgQTeQD6dPXx-33" style="edgeStyle=orthogonalEdgeStyle;rounded=0;orthogonalLoop=1;jettySize=auto;html=1;exitX=0;exitY=0.5;exitDx=0;exitDy=0;entryX=1;entryY=0.5;entryDx=0;entryDy=0;" edge="1" parent="1" source="-QWWCps_DgQTeQD6dPXx-25" target="-QWWCps_DgQTeQD6dPXx-16">
          <mxGeometry relative="1" as="geometry"/>
        </mxCell>
        <mxCell id="-QWWCps_DgQTeQD6dPXx-38" value="club" style="swimlane;fontStyle=0;childLayout=stackLayout;horizontal=1;startSize=26;fillColor=#e0e0e0;horizontalStack=0;resizeParent=1;resizeParentMax=0;resizeLast=0;collapsible=1;marginBottom=0;swimlaneFillColor=#ffffff;align=center;fontSize=14;" vertex="1" parent="1">
          <mxGeometry x="150" y="673" width="160" height="78" as="geometry"/>
        </mxCell>
        <mxCell id="-QWWCps_DgQTeQD6dPXx-39" value="ID" style="text;strokeColor=none;fillColor=none;spacingLeft=4;spacingRight=4;overflow=hidden;rotatable=0;points=[[0,0.5],[1,0.5]];portConstraint=eastwest;fontSize=12;fontStyle=4" vertex="1" parent="-QWWCps_DgQTeQD6dPXx-38">
          <mxGeometry y="26" width="160" height="26" as="geometry"/>
        </mxCell>
        <mxCell id="-QWWCps_DgQTeQD6dPXx-40" value="name" style="text;strokeColor=none;fillColor=none;spacingLeft=4;spacingRight=4;overflow=hidden;rotatable=0;points=[[0,0.5],[1,0.5]];portConstraint=eastwest;fontSize=12;" vertex="1" parent="-QWWCps_DgQTeQD6dPXx-38">
          <mxGeometry y="52" width="160" height="26" as="geometry"/>
        </mxCell>
        <mxCell id="-QWWCps_DgQTeQD6dPXx-41" value="activity" style="swimlane;fontStyle=0;childLayout=stackLayout;horizontal=1;startSize=26;fillColor=#e0e0e0;horizontalStack=0;resizeParent=1;resizeParentMax=0;resizeLast=0;collapsible=1;marginBottom=0;swimlaneFillColor=#ffffff;align=center;fontSize=14;" vertex="1" parent="1">
          <mxGeometry x="504" y="660" width="160" height="104" as="geometry"/>
        </mxCell>
        <mxCell id="-QWWCps_DgQTeQD6dPXx-42" value="date" style="text;strokeColor=none;fillColor=none;spacingLeft=4;spacingRight=4;overflow=hidden;rotatable=0;points=[[0,0.5],[1,0.5]];portConstraint=eastwest;fontSize=12;fontStyle=4" vertex="1" parent="-QWWCps_DgQTeQD6dPXx-41">
          <mxGeometry y="26" width="160" height="26" as="geometry"/>
        </mxCell>
        <mxCell id="-QWWCps_DgQTeQD6dPXx-43" value="time" style="text;strokeColor=none;fillColor=none;spacingLeft=4;spacingRight=4;overflow=hidden;rotatable=0;points=[[0,0.5],[1,0.5]];portConstraint=eastwest;fontSize=12;fontStyle=4" vertex="1" parent="-QWWCps_DgQTeQD6dPXx-41">
          <mxGeometry y="52" width="160" height="26" as="geometry"/>
        </mxCell>
        <mxCell id="-QWWCps_DgQTeQD6dPXx-46" value="description" style="text;strokeColor=none;fillColor=none;spacingLeft=4;spacingRight=4;overflow=hidden;rotatable=0;points=[[0,0.5],[1,0.5]];portConstraint=eastwest;fontSize=12;fontStyle=0" vertex="1" parent="-QWWCps_DgQTeQD6dPXx-41">
          <mxGeometry y="78" width="160" height="26" as="geometry"/>
        </mxCell>
        <mxCell id="-QWWCps_DgQTeQD6dPXx-49" value="roomInfo" style="swimlane;fontStyle=0;childLayout=stackLayout;horizontal=1;startSize=26;fillColor=#e0e0e0;horizontalStack=0;resizeParent=1;resizeParentMax=0;resizeLast=0;collapsible=1;marginBottom=0;swimlaneFillColor=#ffffff;align=center;fontSize=14;" vertex="1" parent="1">
          <mxGeometry x="900" y="660" width="160" height="104" as="geometry"/>
        </mxCell>
        <mxCell id="-QWWCps_DgQTeQD6dPXx-50" value="building" style="text;strokeColor=none;fillColor=none;spacingLeft=4;spacingRight=4;overflow=hidden;rotatable=0;points=[[0,0.5],[1,0.5]];portConstraint=eastwest;fontSize=12;fontStyle=4" vertex="1" parent="-QWWCps_DgQTeQD6dPXx-49">
          <mxGeometry y="26" width="160" height="26" as="geometry"/>
        </mxCell>
        <mxCell id="-QWWCps_DgQTeQD6dPXx-51" value="room" style="text;strokeColor=none;fillColor=none;spacingLeft=4;spacingRight=4;overflow=hidden;rotatable=0;points=[[0,0.5],[1,0.5]];portConstraint=eastwest;fontSize=12;fontStyle=4" vertex="1" parent="-QWWCps_DgQTeQD6dPXx-49">
          <mxGeometry y="52" width="160" height="26" as="geometry"/>
        </mxCell>
        <mxCell id="-QWWCps_DgQTeQD6dPXx-52" value="capacity" style="text;strokeColor=none;fillColor=none;spacingLeft=4;spacingRight=4;overflow=hidden;rotatable=0;points=[[0,0.5],[1,0.5]];portConstraint=eastwest;fontSize=12;" vertex="1" parent="-QWWCps_DgQTeQD6dPXx-49">
          <mxGeometry y="78" width="160" height="26" as="geometry"/>
        </mxCell>
        <mxCell id="-QWWCps_DgQTeQD6dPXx-57" style="edgeStyle=orthogonalEdgeStyle;rounded=0;orthogonalLoop=1;jettySize=auto;html=1;exitX=1;exitY=0.5;exitDx=0;exitDy=0;entryX=0;entryY=0.077;entryDx=0;entryDy=0;entryPerimeter=0;" edge="1" parent="1" source="-QWWCps_DgQTeQD6dPXx-53" target="-QWWCps_DgQTeQD6dPXx-51">
          <mxGeometry relative="1" as="geometry"/>
        </mxCell>
        <mxCell id="-QWWCps_DgQTeQD6dPXx-53" value="in" style="shape=rhombus;double=1;strokeWidth=2;fontSize=17;perimeter=rhombusPerimeter;whiteSpace=wrap;html=1;align=center;fontSize=14;" vertex="1" parent="1">
          <mxGeometry x="720" y="664" width="100" height="100" as="geometry"/>
        </mxCell>
        <mxCell id="-QWWCps_DgQTeQD6dPXx-54" value="" style="shape=link;html=1;entryX=0;entryY=0.5;entryDx=0;entryDy=0;exitX=1.013;exitY=0.077;exitDx=0;exitDy=0;exitPerimeter=0;" edge="1" parent="1" source="-QWWCps_DgQTeQD6dPXx-43" target="-QWWCps_DgQTeQD6dPXx-53">
          <mxGeometry width="50" height="50" relative="1" as="geometry">
            <mxPoint x="640" y="801" as="sourcePoint"/>
            <mxPoint x="690" y="751" as="targetPoint"/>
          </mxGeometry>
        </mxCell>
        <mxCell id="-QWWCps_DgQTeQD6dPXx-61" style="edgeStyle=orthogonalEdgeStyle;rounded=0;orthogonalLoop=1;jettySize=auto;html=1;exitX=0;exitY=0.5;exitDx=0;exitDy=0;" edge="1" parent="1" source="-QWWCps_DgQTeQD6dPXx-58">
          <mxGeometry relative="1" as="geometry">
            <mxPoint x="310" y="714" as="targetPoint"/>
          </mxGeometry>
        </mxCell>
        <mxCell id="-QWWCps_DgQTeQD6dPXx-58" value="sponsor" style="shape=rhombus;strokeWidth=2;fontSize=17;perimeter=rhombusPerimeter;whiteSpace=wrap;html=1;align=center;fontSize=14;" vertex="1" parent="1">
          <mxGeometry x="360" y="664" width="100" height="100" as="geometry"/>
        </mxCell>
        <mxCell id="-QWWCps_DgQTeQD6dPXx-59" value="" style="shape=link;html=1;exitX=1;exitY=0.5;exitDx=0;exitDy=0;entryX=0;entryY=0.077;entryDx=0;entryDy=0;entryPerimeter=0;" edge="1" parent="1" source="-QWWCps_DgQTeQD6dPXx-58" target="-QWWCps_DgQTeQD6dPXx-43">
          <mxGeometry width="50" height="50" relative="1" as="geometry">
            <mxPoint x="390" y="823" as="sourcePoint"/>
            <mxPoint x="450" y="753" as="targetPoint"/>
          </mxGeometry>
        </mxCell>
        <mxCell id="-QWWCps_DgQTeQD6dPXx-62" value="&lt;font style=&quot;font-size: 14px&quot;&gt;2.1&lt;/font&gt;" style="text;html=1;strokeColor=none;fillColor=none;align=center;verticalAlign=middle;whiteSpace=wrap;rounded=0;" vertex="1" parent="1">
          <mxGeometry x="70" y="40" width="40" height="20" as="geometry"/>
        </mxCell>
        <mxCell id="-QWWCps_DgQTeQD6dPXx-65" value="&lt;font style=&quot;font-size: 14px&quot;&gt;2.3&lt;/font&gt;" style="text;html=1;strokeColor=none;fillColor=none;align=center;verticalAlign=middle;whiteSpace=wrap;rounded=0;" vertex="1" parent="1">
          <mxGeometry x="70" y="310" width="40" height="20" as="geometry"/>
        </mxCell>
        <mxCell id="-QWWCps_DgQTeQD6dPXx-68" value="&lt;font style=&quot;font-size: 14px&quot;&gt;2.4&lt;/font&gt;" style="text;html=1;strokeColor=none;fillColor=none;align=center;verticalAlign=middle;whiteSpace=wrap;rounded=0;" vertex="1" parent="1">
          <mxGeometry x="70" y="620" width="40" height="20" as="geometry"/>
        </mxCell>
      </root>
    </mxGraphModel>
  </diagram>
</mxfile>
